<?xml version="1.0" encoding="UTF-8" standalone="no"?>
<svg width="32px" height="66px" viewBox="0 0 32 66" version="1.1" xmlns="http://www.w3.org/2000/svg" xmlns:xlink="http://www.w3.org/1999/xlink">
    <!-- Generator: Sketch 41 (35326) - http://www.bohemiancoding.com/sketch -->
    <title>Shape 3</title>
    <desc>Created with Sketch.</desc>
    <defs></defs>
    <g id="Page-1" stroke="none" stroke-width="1" fill="none" fill-rule="evenodd">
        <g id="facebook" transform="translate(-48.000000, -31.000000)" fill="#3B5791">
            <path d="M56.3704296,96.3672288 L56.3704296,65.9051732 L48.3159091,65.9051732 L48.3159091,54.9369629 L56.3704296,54.9369629 L56.3704296,45.5691217 C56.3704296,38.2076605 61.1283317,31.4481132 72.0912154,31.4481132 C76.530109,31.4481132 79.8131148,31.8736551 79.8131148,31.8736551 L79.5538834,42.1156624 C79.5538834,42.1156624 76.2063657,42.0831105 72.5534521,42.0831105 C68.5998775,42.0831105 67.9665954,43.9048325 67.9665954,46.9291987 C67.9665954,49.3196909 67.9665954,41.8339407 67.9665954,54.9375547 L79.868157,54.9375547 L79.3502861,65.905765 L67.9665954,65.905765 L67.9665954,96.3678207 L56.3704296,96.3678207 L56.3704296,96.3672288 Z" id="Shape-3"></path>
        </g>
    </g>
</svg>