<?xml version="1.0" encoding="UTF-8"?>
<svg width="10px" height="10px" viewBox="0 0 10 10" version="1.1" xmlns="http://www.w3.org/2000/svg" xmlns:xlink="http://www.w3.org/1999/xlink">
    <!-- Generator: sketchtool 41 (35326) - http://www.bohemiancoding.com/sketch -->
    <title>D786CB77-10F0-41C9-A511-50AD5DFE7DF4</title>
    <desc>Created with sketchtool.</desc>
    <defs></defs>
    <g id="Consumption" stroke="none" stroke-width="1" fill="none" fill-rule="evenodd" opacity="0.7">
        <g id="Desktop" transform="translate(-652.000000, -488.000000)" fill="#B8B8B8">
            <g id="Content" transform="translate(490.000000, 120.000000)">
                <g id="Item">
                    <g id="Stats" transform="translate(10.270120, 365.361625)">
                        <g id="Plays" transform="translate(151.179463, 0.869320)">
                            <path d="M9.29714612,6.78961201 C9.13011531,6.65739777 9.00882259,6.58705899 9.00871043,6.58947043 L9.00871043,6.36406247 C9.00871043,6.10487034 8.81762718,5.85729996 8.55843505,5.85729996 L7.71437142,5.85729996 C7.45517929,5.85729996 7.24139308,6.08216738 7.24139308,6.34135951 C7.24139308,6.34135951 7.35382679,7.9065124 7.35382679,8.43597787 C7.35382679,8.96490278 7.24139308,10.5416774 7.24139308,10.5416774 C7.24139308,10.7892478 7.45517929,11.025737 7.71437142,11.025737 L8.5589756,11.025737 C8.81762718,11.025737 9.00925097,10.7781666 9.00925097,10.5189745 L9.00925097,10.4065408 C10.5060729,9.26308719 10.4111769,8.25319367 9.99395438,7.55983847 C10.0595626,7.24033862 10.0901641,6.92137734 10.0901641,6.57784868 C10.0901641,3.92785696 7.9771509,1.76905541 5.37164214,1.76905541 C2.76613338,1.76905541 0.653120171,3.92785696 0.653120171,6.57784868 C0.653120171,6.92344722 0.684091551,7.24418144 0.750519659,7.56561384 C0.394044671,8.25306774 0.38790367,9.21388219 1.80160165,10.2941071 L1.80160165,10.4065408 C1.80160165,10.6657329 2.04917202,10.9133033 2.30836415,10.9133033 L3.15296833,10.9133033 C3.41216046,10.9133033 3.62594666,10.6768141 3.62594666,10.4292437 C3.62594666,10.4292437 3.51351296,8.85246908 3.51351296,8.32354416 C3.51351296,7.79407869 3.62594666,6.2289258 3.62594666,6.2289258 C3.62594666,5.96973367 3.41216046,5.74486626 3.15296833,5.74486626 L2.30836415,5.74486626 C2.04917202,5.74486626 1.80160165,5.99243663 1.80160165,6.25162876 L1.80160165,6.47703672 C1.80160165,6.4743017 1.64568879,6.56512039 1.44393893,6.73364788 C1.44225048,6.6824465 1.44141736,6.63056416 1.44141736,6.57784868 C1.44141736,4.35948382 3.20532524,2.5573526 5.37164214,2.5573526 C7.53795905,2.5573526 9.30186693,4.35948382 9.30186693,6.57784868 C9.30186693,6.64986192 9.30031219,6.72032036 9.29714612,6.78961201 Z" id="icon-plays"></path>
                        </g>
                    </g>
                </g>
            </g>
        </g>
    </g>
</svg>