<?xml version="1.0" encoding="UTF-8" standalone="no"?>
<svg width="70px" height="57px" viewBox="0 0 70 57" version="1.1" xmlns="http://www.w3.org/2000/svg" xmlns:xlink="http://www.w3.org/1999/xlink">
    <!-- Generator: Sketch 41 (35326) - http://www.bohemiancoding.com/sketch -->
    <title>Shape 5</title>
    <desc>Created with Sketch.</desc>
    <defs></defs>
    <g id="Page-1" stroke="none" stroke-width="1" fill="none" fill-rule="evenodd">
        <g id="twitter" transform="translate(-29.000000, -35.000000)" fill="#32A7E0">
            <path d="M90.2987618,44.801405 C93.2133535,43.0542327 95.4521975,40.2875899 96.5060748,36.9907398 C93.7779674,38.6088869 90.756715,39.7835317 87.5407207,40.416615 C84.9657232,37.6726806 81.2965926,35.9585388 77.2359138,35.9585388 C69.4393553,35.9585388 63.1178122,42.2793938 63.1178122,50.0759522 C63.1178122,51.1824717 63.2427085,52.2600896 63.4832114,53.2933228 C51.7498382,52.7046242 41.3473162,47.0839455 34.3844322,38.542482 C33.1691875,40.6275281 32.4727959,43.0525123 32.4727959,45.6398963 C32.4727959,50.5380342 34.9652173,54.8591718 38.7533951,57.3908168 C36.4388563,57.3175305 34.2622884,56.6823828 32.3589097,55.6250649 C32.3575334,55.6839004 32.3575334,55.7430799 32.3575334,55.8026035 C32.3575334,62.6426556 37.2240172,68.3486629 43.682499,69.6457956 C42.4978763,69.9685304 41.2506334,70.140908 39.9627906,70.140908 C39.0527334,70.140908 38.1684812,70.0521387 37.3062492,69.8876747 C39.1033112,75.496311 44.3166145,79.578322 50.4946818,79.6918641 C45.6629487,83.4786656 39.5757152,85.7354011 32.961027,85.7354011 C31.821477,85.7354011 30.6977542,85.6686521 29.5932991,85.5379066 C35.8412119,89.5438788 43.2623932,91.8814701 51.2347699,91.8814701 C77.2025393,91.8814701 91.4028729,70.3690244 91.4028729,51.712679 C91.4028729,51.1005838 91.3891102,50.4919292 91.3619289,49.8860272 C94.1210023,47.8959436 96.5143324,45.4093714 98.407045,42.578388 C95.8753999,43.7014227 93.154174,44.4600905 90.2987618,44.801405 Z" id="Shape-5"></path>
        </g>
    </g>
</svg>